<?xml version="1.0" encoding="UTF-8" standalone="no"?>
<!-- Created with Inkscape (http://www.inkscape.org/) -->

<svg
   width="366.83218mm"
   height="84.510269mm"
   viewBox="0 0 366.83219 84.510269"
   version="1.1"
   id="svg1"
   inkscape:version="1.4 (86a8ad7, 2024-10-11)"
   sodipodi:docname="commonalitylab-com-03.svg"
   inkscape:export-filename="commonalitylab-com-02-raster.png"
   inkscape:export-xdpi="210.39"
   inkscape:export-ydpi="210.39"
   xmlns:inkscape="http://www.inkscape.org/namespaces/inkscape"
   xmlns:sodipodi="http://sodipodi.sourceforge.net/DTD/sodipodi-0.dtd"
   xmlns="http://www.w3.org/2000/svg"
   xmlns:svg="http://www.w3.org/2000/svg">
  <sodipodi:namedview
     id="namedview1"
     pagecolor="#ffffff"
     bordercolor="#000000"
     borderopacity="0.25"
     inkscape:showpageshadow="2"
     inkscape:pageopacity="0.0"
     inkscape:pagecheckerboard="0"
     inkscape:deskcolor="#d1d1d1"
     inkscape:document-units="mm"
     inkscape:zoom="0.51981271"
     inkscape:cx="914.75254"
     inkscape:cy="274.1372"
     inkscape:window-width="2560"
     inkscape:window-height="1369"
     inkscape:window-x="-8"
     inkscape:window-y="-8"
     inkscape:window-maximized="1"
     inkscape:current-layer="g47" />
  <defs
     id="defs1" />
  <g
     inkscape:label="Layer 1"
     inkscape:groupmode="layer"
     id="layer1"
     transform="translate(221.13436,34.411236)">
    <g
       id="g46"
       transform="matrix(0.92306599,0,0,0.92306599,-265.78688,-34.411236)">
      <g
         id="g10"
         style="display:inline;fill:#5f9cd2;fill-opacity:1"
         transform="matrix(0.86665025,0,0,0.86665025,-33.602578,-42.936877)">
        <g
           id="g49"
           style="fill:#5f9cd2;fill-opacity:1">
          <path
             id="path10"
             style="display:inline;fill:#5f9cd2;fill-opacity:1;stroke-width:0.264583"
             d="m 190.43317,62.964116 -13.93093,6.066813 3.83594,2.834969 -17.59376,21.925277 -6.951,-3.985287 -14.92105,18.906852 -18.81384,-13.438452 -27.408145,26.330172 c -0.648753,5.7461 4.170805,3.42874 4.170805,3.42874 l 23.97838,-22.43739 19.18488,13.71647 15.29209,-19.184875 6.30194,4.078305 21.41471,-25.899195 3.72846,2.755387 z m -18.21026,31.480249 -8.39122,10.625705 -6.42235,-4.0628 -15.46623,19.13578 -19.26705,-13.76195 -10.48204,10.48205 c 0,0 0,19.49792 0,29.24688 0,0.66556 1.14364,1.99669 1.71545,1.99669 18.80826,0 56.42476,0 56.42476,0 0.62956,0 1.88868,-1.24375 1.88868,-1.86563 z"
             sodipodi:nodetypes="ccccccccccccccccccccccaassc" />
        </g>
      </g>
      <g
         id="g54"
         transform="matrix(0.86665024,0,0,0.86665024,48.374248,2.2186246e-4)"
         style="display:inline;fill:#495f74;fill-opacity:1">
        <path
           id="path36"
           style="display:inline;fill:#495f74;fill-opacity:1;stroke-width:0.264583"
           d="m 83.097058,40.761937 c -2.25096,0 -4.063318,1.811839 -4.063318,4.062801 v 56.919002 l 6.296257,-6.097297 V 50.410444 c 0,-2.0052 1.529745,-3.619417 3.429765,-3.619417 h 60.737898 c 1.90003,0 3.42976,1.614217 3.42976,3.619417 v 6.480741 l 6.18877,-2.078426 v -9.988021 c 0,-2.250962 -1.81184,-4.062801 -4.0628,-4.062801 z m 5.705078,8.238257 a 1.8021196,1.8021196 0 0 0 -1.801957,1.801957 v 7.929232 a 1.8021196,1.8021196 0 0 0 1.801957,1.802474 h 60.357044 a 1.8021196,1.8021196 0 0 0 1.80247,-1.802474 v -7.929232 a 1.8021196,1.8021196 0 0 0 -1.80247,-1.801957 z m 2.726966,5.999634 a 1.5292042,1.5292042 0 0 1 1.529105,1.529622 1.5292042,1.5292042 0 0 1 -1.529105,1.529106 1.5292042,1.5292042 0 0 1 -1.529106,-1.529106 1.5292042,1.5292042 0 0 1 1.529106,-1.529622 z m -2.726966,8.000028 a 1.8021196,1.8021196 0 0 0 -1.801957,1.801958 v 7.929748 a 1.8021196,1.8021196 0 0 0 1.801957,1.801957 h 55.121704 l 7.03781,-8.605159 v -1.126546 a 1.8021196,1.8021196 0 0 0 -1.80247,-1.801958 z m 2.726966,6.000151 a 1.5292042,1.5292042 0 0 1 1.529105,1.529106 1.5292042,1.5292042 0 0 1 -1.529105,1.529105 1.5292042,1.5292042 0 0 1 -1.529106,-1.529105 1.5292042,1.5292042 0 0 1 1.529106,-1.529106 z m 67.587088,5.023983 -6.18877,7.327718 v 55.927332 c 0,2.00519 -1.52973,3.6189 -3.42976,3.6189 H 88.759762 c -1.90002,0 -3.429765,-1.61371 -3.429765,-3.6189 v -25.15557 l -6.296257,6.29678 v 23.91998 c 0,2.25096 1.812358,4.0628 4.063318,4.0628 h 71.956332 c 2.25096,0 4.0628,-1.81184 4.0628,-4.0628 z m -70.312503,2.976045 a 1.8040434,1.8021196 0 0 0 -1.803508,1.802474 v 7.929232 a 1.8040434,1.8021196 0 0 0 1.803508,1.801957 h 4.018876 l 6.08645,-5.887496 7.816057,5.887496 h 16.33441 l 8.84804,-11.392069 6.75721,3.93206 3.33519,-4.073654 z m 2.725415,5.000212 a 1.5292042,1.5292042 0 0 1 1.529105,1.529106 1.5292042,1.5292042 0 0 1 -1.529105,1.529105 1.5292042,1.5292042 0 0 1 -1.529106,-1.529105 1.5292042,1.5292042 0 0 1 1.529106,-1.529106 z"
           transform="translate(-71.522479,-40.762193)" />
      </g>
    </g>
    <g
       id="g47"
       transform="translate(-131.86738,-102.6169)">
      <text
         xml:space="preserve"
         style="font-style:normal;font-variant:normal;font-weight:bold;font-stretch:normal;font-size:70.5556px;line-height:0.5;font-family:Dubai;-inkscape-font-specification:'Dubai, Bold';font-variant-ligatures:normal;font-variant-position:super;font-variant-caps:normal;font-variant-numeric:normal;font-variant-east-asian:normal;text-align:start;letter-spacing:0px;word-spacing:0px;writing-mode:lr-tb;direction:ltr;text-anchor:start;white-space:pre;inline-size:522.067;display:inline;fill:#495f74;fill-opacity:1;fill-rule:evenodd;stroke:none;stroke-width:2.5;stroke-linecap:square;stroke-linejoin:bevel"
         x="-168.13158"
         y="-63.436893"
         id="text10"
         transform="matrix(0.50960695,0,0,0.50960695,84.767207,146.9714)"><tspan
           x="-168.13158"
           y="-63.436893"
           id="tspan1">CONNOR E. JAY</tspan></text>
      <text
         xml:space="preserve"
         style="font-style:normal;font-variant:normal;font-weight:300;font-stretch:normal;font-size:27.9101px;line-height:0.5;font-family:Dubai;-inkscape-font-specification:'Dubai, Light';font-variant-ligatures:normal;font-variant-position:super;font-variant-caps:normal;font-variant-numeric:normal;font-variant-east-asian:normal;text-align:start;letter-spacing:0px;word-spacing:0px;writing-mode:lr-tb;direction:ltr;text-anchor:start;white-space:pre;inline-size:718.511;display:inline;fill:#495f74;fill-opacity:1;fill-rule:evenodd;stroke:none;stroke-width:2.5;stroke-linecap:square;stroke-linejoin:bevel"
         x="-168.13158"
         y="-63.436893"
         id="text10-2"
         transform="matrix(0.50559067,0,0,0.50559067,149.21828,162.25621)"><tspan
           x="-168.13158"
           y="-63.436893"
           id="tspan4"><tspan
             style="font-family:'Nirmala Text';-inkscape-font-specification:'Nirmala Text, Light'"
             id="tspan3">CCNA at 18. CCIE by 24.</tspan></tspan></text>
    </g>
  </g>
</svg>
