<?xml version="1.0" encoding="UTF-8" standalone="no"?>
<!-- Created with Inkscape (http://www.inkscape.org/) -->

<svg
   width="513.78571mm"
   height="157.22041mm"
   viewBox="0 0 513.78571 157.22042"
   version="1.1"
   id="svg1"
   inkscape:version="1.4.2 (ebf0e940, 2025-05-08)"
   sodipodi:docname="lockup-02.svg"
   inkscape:export-filename="redesigned-logo.png"
   inkscape:export-xdpi="96"
   inkscape:export-ydpi="96"
   xml:space="preserve"
   xmlns:inkscape="http://www.inkscape.org/namespaces/inkscape"
   xmlns:sodipodi="http://sodipodi.sourceforge.net/DTD/sodipodi-0.dtd"
   xmlns="http://www.w3.org/2000/svg"
   xmlns:svg="http://www.w3.org/2000/svg"><sodipodi:namedview
     id="namedview1"
     pagecolor="#ffffff"
     bordercolor="#000000"
     borderopacity="0.25"
     inkscape:showpageshadow="2"
     inkscape:pageopacity="0.0"
     inkscape:pagecheckerboard="0"
     inkscape:deskcolor="#d1d1d1"
     inkscape:document-units="mm"
     inkscape:zoom="0.15705276"
     inkscape:cx="1588.6381"
     inkscape:cy="-19.101861"
     inkscape:window-width="1728"
     inkscape:window-height="967"
     inkscape:window-x="0"
     inkscape:window-y="34"
     inkscape:window-maximized="0"
     inkscape:current-layer="layer1" /><defs
     id="defs1"><rect
       x="-506.56299"
       y="-153.14696"
       width="4347.0171"
       height="973.85754"
       id="rect2" /></defs><g
     inkscape:label="Layer 1"
     inkscape:groupmode="layer"
     id="layer1"
     transform="translate(148.21917,-100.22316)"><g
       id="g46"
       transform="matrix(0.98994292,0,0,0.98994292,17.583866,100.22316)"><g
         id="g10"
         style="display:inline;fill:#5f9cd2;fill-opacity:1"
         transform="matrix(0.86665025,0,0,0.86665025,-33.602578,-42.936877)"><g
           id="g49"
           style="fill:#5f9cd2;fill-opacity:1"><path
             id="path10"
             style="font-variation-settings:'opsz' 40, 'wght' 500;display:inline;fill:#5f9cd2;fill-opacity:1;stroke-width:0.264583"
             d="m 190.43317,62.964116 -13.93093,6.066813 3.83594,2.834969 -17.59376,21.925277 -6.951,-3.985287 -14.92105,18.906852 -18.81384,-13.438452 -27.408145,26.330172 c -0.648753,5.7461 4.170805,3.42874 4.170805,3.42874 l 23.97838,-22.43739 19.18488,13.71647 15.29209,-19.184875 6.30194,4.078305 21.41471,-25.899195 3.72846,2.755387 z m -18.21026,31.480249 -8.39122,10.625705 -6.42235,-4.0628 -15.46623,19.13578 -19.26705,-13.76195 -10.48204,10.48205 v 1.67773 c 0,0 0.007,22.29803 0,22.4113 -0.007,0.11327 0.59017,5.46929 3.7507,5.46929 0,0 50.16267,0.0317 52.52786,0 2.36519,-0.0317 3.75523,-3.72432 3.75033,-5.46892 -0.005,-1.74459 0,-46.508185 0,-46.508185 z"
             sodipodi:nodetypes="ccccccccccccccccscccccczzzzs" /></g></g><g
         id="g54"
         transform="matrix(0.86665024,0,0,0.86665024,48.374248,2.2186246e-4)"
         style="display:inline;fill:#495f74;fill-opacity:1"><path
           id="path36"
           style="display:inline;fill:#495f74;fill-opacity:1;stroke-width:0.264583"
           d="m 83.097058,40.761937 c -2.25096,0 -4.063318,1.811839 -4.063318,4.062801 v 56.919002 l 6.296257,-6.097297 V 50.410444 c 0,-2.0052 1.529745,-3.619417 3.429765,-3.619417 h 60.737898 c 1.90003,0 3.42976,1.614217 3.42976,3.619417 v 6.480741 l 6.18877,-2.078426 v -9.988021 c 0,-2.250962 -1.81184,-4.062801 -4.0628,-4.062801 z m 5.705078,8.238257 c -0.995156,9e-5 -1.801867,0.806801 -1.801957,1.801957 v 7.929232 c -1.96e-4,0.995358 0.806599,1.802384 1.801957,1.802474 h 60.357044 c 0.99556,1.94e-4 1.80267,-0.806916 1.80247,-1.802474 V 50.802151 C 150.96156,49.806794 150.15454,49 149.15918,49.000194 Z m 2.726966,5.999634 c 0.844681,5.5e-5 1.529336,0.684941 1.529105,1.529622 -5.4e-5,0.844479 -0.684626,1.529051 -1.529105,1.529106 -0.844479,-5.4e-5 -1.529052,-0.684627 -1.529106,-1.529106 -2.31e-4,-0.844681 0.684425,-1.529568 1.529106,-1.529622 z m -2.726966,8.000028 c -0.995157,9e-5 -1.801868,0.806801 -1.801957,1.801958 v 7.929748 c 9e-5,0.995156 0.806801,1.801867 1.801957,1.801957 h 55.121704 l 7.03781,-8.605159 v -1.126546 c -9e-5,-0.995357 -0.80711,-1.802152 -1.80247,-1.801958 z m 2.726966,6.000151 c 0.844479,5.5e-5 1.529051,0.684627 1.529105,1.529106 -5.5e-5,0.844479 -0.684626,1.52905 -1.529105,1.529105 -0.844479,-5.4e-5 -1.529051,-0.684626 -1.529106,-1.529105 5.4e-5,-0.844479 0.684627,-1.529052 1.529106,-1.529106 z m 67.587088,5.023983 -6.18877,7.327718 v 55.927332 c 0,2.00519 -1.52973,3.6189 -3.42976,3.6189 H 88.759762 c -1.90002,0 -3.429765,-1.61371 -3.429765,-3.6189 v -25.15557 l -6.296257,6.29678 v 23.91998 c 0,2.25096 1.812358,4.0628 4.063318,4.0628 h 71.956332 c 2.25096,0 4.0628,-1.81184 4.0628,-4.0628 z m -70.312503,2.976045 c -0.996275,2.95e-4 -1.803704,0.807261 -1.803508,1.802474 v 7.929232 c 9e-5,0.995011 0.807435,1.801662 1.803508,1.801957 h 4.018876 l 6.08645,-5.887496 7.816057,5.887496 h 16.33441 l 8.84804,-11.392069 6.75721,3.93206 3.33519,-4.073654 z m 2.725415,5.000212 c 0.844479,5.5e-5 1.529051,0.684627 1.529105,1.529106 -5.5e-5,0.844479 -0.684626,1.52905 -1.529105,1.529105 -0.844479,-5.4e-5 -1.529051,-0.684626 -1.529106,-1.529105 5.4e-5,-0.844479 0.684627,-1.529052 1.529106,-1.529106 z"
           transform="translate(-71.522479,-40.762193)"
           sodipodi:nodetypes="ssccssssccsssccccccccccccccccccccccccccccccssssccsssscccccccccccccccccc" /></g></g><g
       id="g16"
       transform="matrix(0.8850395,0,0,0.8850395,-280.92836,95.015825)"><path
         style="font-size:73.9693px;line-height:0;font-family:'DM Sans';-inkscape-font-specification:'DM Sans, @opsz=40,wght=500';font-variation-settings:'opsz' 40, 'wght' 500;letter-spacing:2.64583px;fill:#5f9cd2;fill-opacity:1;stroke-width:0.482408"
         d="m 713.23524,169.61975 q -3.03274,0 -5.69564,-0.88763 -2.66289,-0.88763 -4.808,-2.58893 -2.07114,-1.70129 -3.69847,-4.29022 h -0.29588 l -0.51778,6.87915 h -6.21342 v -51.77851 h 7.39693 v 20.7114 q 1.77526,-2.51496 5.02991,-4.51213 3.25465,-1.99717 8.13662,-1.99717 5.69564,0 9.68998,2.51496 3.99434,2.51496 6.06548,6.87914 2.14511,4.36419 2.14511,9.83792 0,5.47373 -2.14511,9.83792 -2.07114,4.36419 -5.99151,6.87914 -3.8464,2.51496 -9.09822,2.51496 z m -1.99717,-6.28739 q 3.62449,0 6.21342,-1.62733 2.66289,-1.62732 4.06831,-4.51212 1.47938,-2.95878 1.47938,-6.80518 0,-3.92037 -1.47938,-6.80518 -1.40542,-2.8848 -4.06831,-4.51212 -2.58893,-1.62733 -6.21342,-1.62733 -3.55053,0 -6.21343,1.62733 -2.66289,1.62732 -4.14228,4.51212 -1.40541,2.88481 -1.40541,6.80518 0,3.8464 1.40541,6.80518 1.47939,2.8848 4.14228,4.51212 2.6629,1.62733 6.21343,1.62733 z"
         id="path16" /><path
         style="font-size:73.9693px;line-height:0;font-family:'DM Sans';-inkscape-font-specification:'DM Sans, @opsz=40,wght=500';font-variation-settings:'opsz' 40, 'wght' 500;letter-spacing:2.64583px;fill:#5f9cd2;fill-opacity:1;stroke-width:0.482408"
         d="m 662.79337,169.61975 q -4.36419,0 -7.32296,-1.47939 -2.8848,-1.55335 -4.29022,-4.14228 -1.40542,-2.58892 -1.40542,-5.62167 0,-3.62449 1.84924,-6.21342 1.9232,-2.58892 5.47372,-3.99434 3.6245,-1.40542 8.65441,-1.40542 h 9.68998 q 0,-3.32861 -1.03557,-5.47372 -0.9616,-2.21908 -2.8848,-3.25465 -1.9232,-1.10954 -4.66007,-1.10954 -3.40259,0 -5.91754,1.70129 -2.44099,1.62733 -2.95877,5.17785 h -7.39693 q 0.44381,-4.06831 2.58892,-6.80517 2.21908,-2.81084 5.76961,-4.29022 3.55052,-1.55336 7.91471,-1.55336 5.25182,0 8.80235,1.84924 3.62449,1.84923 5.39976,5.25182 1.77526,3.32861 1.77526,7.91471 v 22.56064 h -6.13945 l -0.73969,-6.13946 h -0.29588 q -1.03557,1.77527 -2.44099,3.10672 -1.40542,1.25747 -3.03274,2.14511 -1.55336,0.88763 -3.47656,1.33144 -1.84923,0.44382 -3.92037,0.44382 z m 1.77526,-5.99151 q 2.58893,0 4.51213,-0.96161 1.99717,-0.9616 3.32862,-2.58892 1.40542,-1.7013 2.07114,-3.77244 0.73969,-2.07114 0.81366,-4.29021 v 0 h -8.80234 q -3.25465,0 -5.25183,0.73969 -1.9232,0.73969 -2.81083,2.07114 -0.88763,1.33145 -0.88763,3.10671 0,1.70129 0.81366,3.03274 0.88763,1.25748 2.44099,1.99717 1.62732,0.66573 3.77243,0.66573 z"
         id="path15" /><path
         style="font-size:73.9693px;line-height:0;font-family:'DM Sans';-inkscape-font-specification:'DM Sans, @opsz=40,wght=500';font-variation-settings:'opsz' 40, 'wght' 500;letter-spacing:2.64583px;fill:#5f9cd2;fill-opacity:1;stroke-width:0.482408"
         d="m 612.73325,168.73212 v -51.77851 h 7.39693 v 45.93493 h 23.67018 v 5.84358 z"
         id="path14" /><path
         style="font-size:73.9693px;line-height:0;font-family:'DM Sans';-inkscape-font-specification:'DM Sans, @opsz=40,wght=500';font-variation-settings:'opsz' 40, 'wght' 500;letter-spacing:2.64583px;fill:#495f74;stroke-width:0.482408"
         d="m 575.4698,183.52598 8.58044,-18.93614 h -2.21908 l -14.79386,-32.5465 h 7.98868 l 11.76112,26.70292 h 0.29588 l 11.53921,-26.70292 h 7.76677 l -23.15239,51.48264 z"
         id="path13" /><path
         style="font-size:73.9693px;line-height:0;font-family:'DM Sans';-inkscape-font-specification:'DM Sans, @opsz=40,wght=500';font-variation-settings:'opsz' 40, 'wght' 500;letter-spacing:2.64583px;fill:#495f74;stroke-width:0.482408"
         d="m 557.29041,168.73212 q -3.47656,0 -6.13945,-1.10954 -2.58893,-1.10954 -3.99434,-3.69847 -1.33145,-2.58892 -1.33145,-7.02708 v -19.30599 h -6.36136 v -5.5477 h 6.36136 l 0.81366,-9.17219 h 6.58327 v 9.17219 h 10.42967 v 5.5477 H 553.2221 V 156.971 q 0,3.47656 1.25748,4.66006 1.33145,1.18351 4.58609,1.18351 h 4.14229 v 5.91755 z"
         id="path12" /><path
         style="font-size:73.9693px;line-height:0;font-family:'DM Sans';-inkscape-font-specification:'DM Sans, @opsz=40,wght=500';font-variation-settings:'opsz' 40, 'wght' 500;letter-spacing:2.64583px;fill:#495f74;stroke-width:0.482408"
         d="m 528.60743,125.53405 q -2.14511,0 -3.55052,-1.33145 -1.40542,-1.33145 -1.40542,-3.40259 0,-1.99717 1.40542,-3.32862 1.40541,-1.40541 3.55052,-1.40541 2.07114,0 3.47656,1.40541 1.40542,1.33145 1.40542,3.32862 0,1.99717 -1.40542,3.40259 -1.40542,1.33145 -3.47656,1.33145 z"
         id="path11" /><path
         style="font-size:73.9693px;line-height:0;font-family:'DM Sans';-inkscape-font-specification:'DM Sans, @opsz=40,wght=500';font-variation-settings:'opsz' 40, 'wght' 500;letter-spacing:2.64583px;fill:#495f74;stroke-width:0.482408"
         d="m 524.90897,168.73212 v -36.68878 h 7.39693 v 36.68878 z"
         id="path9" /><path
         style="font-size:73.9693px;line-height:0;font-family:'DM Sans';-inkscape-font-specification:'DM Sans, @opsz=40,wght=500';font-variation-settings:'opsz' 40, 'wght' 500;letter-spacing:2.64583px;fill:#495f74;stroke-width:0.482408"
         d="m 507.32132,168.73212 v -51.77851 h 7.39693 v 51.77851 z"
         id="path8" /><path
         style="font-size:73.9693px;line-height:0;font-family:'DM Sans';-inkscape-font-specification:'DM Sans, @opsz=40,wght=500';font-variation-settings:'opsz' 40, 'wght' 500;letter-spacing:2.64583px;fill:#495f74;stroke-width:0.482408"
         d="m 478.71232,169.61975 q -4.36419,0 -7.32297,-1.47939 -2.8848,-1.55335 -4.29021,-4.14228 -1.40542,-2.58892 -1.40542,-5.62167 0,-3.62449 1.84923,-6.21342 1.9232,-2.58892 5.47373,-3.99434 3.6245,-1.40542 8.65441,-1.40542 h 9.68998 q 0,-3.32861 -1.03557,-5.47372 -0.96161,-2.21908 -2.88481,-3.25465 -1.9232,-1.10954 -4.66006,-1.10954 -3.40259,0 -5.91755,1.70129 -2.44098,1.62733 -2.95877,5.17785 h -7.39693 q 0.44382,-4.06831 2.58893,-6.80517 2.21908,-2.81084 5.7696,-4.29022 3.55053,-1.55336 7.91472,-1.55336 5.25182,0 8.80234,1.84924 3.6245,1.84923 5.39976,5.25182 1.77527,3.32861 1.77527,7.91471 v 22.56064 h -6.13946 l -0.73969,-6.13946 h -0.29588 q -1.03557,1.77527 -2.44098,3.10672 -1.40542,1.25747 -3.03274,2.14511 -1.55336,0.88763 -3.47656,1.33144 -1.84923,0.44382 -3.92037,0.44382 z m 1.77526,-5.99151 q 2.58892,0 4.51213,-0.96161 1.99717,-0.9616 3.32861,-2.58892 1.40542,-1.7013 2.07114,-3.77244 0.7397,-2.07114 0.81367,-4.29021 v 0 h -8.80235 q -3.25465,0 -5.25182,0.73969 -1.9232,0.73969 -2.81083,2.07114 -0.88763,1.33145 -0.88763,3.10671 0,1.70129 0.81366,3.03274 0.88763,1.25748 2.44098,1.99717 1.62733,0.66573 3.77244,0.66573 z"
         id="path7" /><path
         style="font-size:73.9693px;line-height:0;font-family:'DM Sans';-inkscape-font-specification:'DM Sans, @opsz=40,wght=500';font-variation-settings:'opsz' 40, 'wght' 500;letter-spacing:2.64583px;fill:#495f74;stroke-width:0.482408"
         d="m 424.21402,168.73212 v -36.68878 h 6.43533 l 0.66572,5.84358 h 0.29588 q 1.84923,-3.10671 4.95594,-4.88197 3.10671,-1.84924 7.54487,-1.84924 4.29022,0 7.4709,1.84924 3.18068,1.77526 4.88198,5.39975 1.77526,3.6245 1.77526,9.1722 v 21.15522 h -7.39693 v -20.41553 q 0,-5.32579 -2.29305,-8.06265 -2.21908,-2.81084 -6.65724,-2.81084 -2.95877,0 -5.32579,1.47939 -2.29304,1.40542 -3.62449,4.14228 -1.33145,2.73686 -1.33145,6.65724 v 19.01011 z"
         id="path6" /><path
         style="font-size:73.9693px;line-height:0;font-family:'DM Sans';-inkscape-font-specification:'DM Sans, @opsz=40,wght=500';font-variation-settings:'opsz' 40, 'wght' 500;letter-spacing:2.64583px;fill:#495f74;stroke-width:0.482408"
         d="m 398.19395,169.61975 q -5.17785,0 -9.3941,-2.36702 -4.14228,-2.44099 -6.58327,-6.73121 -2.44099,-4.36418 -2.44099,-10.13379 0,-5.7696 2.44099,-10.05982 2.51496,-4.36419 6.65724,-6.73121 4.21625,-2.44099 9.46807,-2.44099 5.25182,0 9.3941,2.44099 4.21625,2.36702 6.58327,6.73121 2.44098,4.29022 2.44098,10.05982 0,5.76961 -2.44098,10.13379 -2.44099,4.29022 -6.65724,6.73121 -4.21625,2.36702 -9.46807,2.36702 z m 0,-5.91755 q 2.95877,0 5.39976,-1.47938 2.51495,-1.47939 4.06831,-4.36419 1.55335,-2.95877 1.55335,-7.4709 0,-4.51213 -1.55335,-7.4709 -1.47939,-2.95877 -3.99434,-4.36419 -2.44099,-1.47938 -5.32579,-1.47938 -2.8848,0 -5.39976,1.47938 -2.51496,1.40542 -4.06831,4.36419 -1.55336,2.95877 -1.55336,7.4709 0,4.51213 1.55336,7.4709 1.55335,2.8848 3.99434,4.36419 2.51496,1.47938 5.32579,1.47938 z"
         id="path5" /><path
         style="font-size:73.9693px;line-height:0;font-family:'DM Sans';-inkscape-font-specification:'DM Sans, @opsz=40,wght=500';font-variation-settings:'opsz' 40, 'wght' 500;letter-spacing:2.64583px;fill:#495f74;stroke-width:0.482408"
         d="m 314.62566,168.73212 v -36.68878 h 6.5093 l 0.66572,6.06549 h 0.29588 q 1.77526,-3.47656 4.808,-5.17785 3.10671,-1.77527 6.80518,-1.77527 2.8848,0 5.17785,0.81366 2.36702,0.81367 4.06831,2.44099 1.70129,1.62733 2.81083,4.14228 h 0.29588 q 1.99717,-3.62449 5.10388,-5.47373 3.10671,-1.9232 7.69281,-1.9232 4.14228,0 7.17502,1.84924 3.10671,1.77526 4.88197,5.39975 1.77527,3.6245 1.77527,9.1722 v 21.15522 h -7.32296 v -20.41553 q 0,-5.32579 -2.14511,-8.06265 -2.14511,-2.81084 -6.5093,-2.81084 -2.81083,0 -4.88198,1.18351 -2.07114,1.10954 -3.32861,3.55053 -1.18351,2.36702 -1.18351,6.13945 v 20.41553 h -7.32296 v -20.41553 q 0,-5.32579 -2.14511,-8.06265 -2.14511,-2.81084 -6.28739,-2.81084 -2.51496,0 -4.66007,1.47939 -2.14511,1.40542 -3.55053,4.14228 -1.33144,2.73686 -1.33144,6.65724 v 19.01011 z"
         id="path4" /><path
         style="font-size:73.9693px;line-height:0;font-family:'DM Sans';-inkscape-font-specification:'DM Sans, @opsz=40,wght=500';font-variation-settings:'opsz' 40, 'wght' 500;letter-spacing:2.64583px;fill:#495f74;stroke-width:0.482408"
         d="m 248.36619,168.73212 v -36.68878 h 6.5093 l 0.66572,6.06549 h 0.29588 q 1.77526,-3.47656 4.808,-5.17785 3.10671,-1.77527 6.80518,-1.77527 2.8848,0 5.17785,0.81366 2.36702,0.81367 4.06831,2.44099 1.70129,1.62733 2.81083,4.14228 h 0.29588 q 1.99717,-3.62449 5.10388,-5.47373 3.10671,-1.9232 7.69281,-1.9232 4.14228,0 7.17502,1.84924 3.10671,1.77526 4.88198,5.39975 1.77526,3.6245 1.77526,9.1722 v 21.15522 h -7.32296 v -20.41553 q 0,-5.32579 -2.14511,-8.06265 -2.14511,-2.81084 -6.5093,-2.81084 -2.81083,0 -4.88197,1.18351 -2.07114,1.10954 -3.32862,3.55053 -1.18351,2.36702 -1.18351,6.13945 v 20.41553 h -7.32296 v -20.41553 q 0,-5.32579 -2.14511,-8.06265 -2.14511,-2.81084 -6.28739,-2.81084 -2.51496,0 -4.66007,1.47939 -2.14511,1.40542 -3.55052,4.14228 -1.33145,2.73686 -1.33145,6.65724 v 19.01011 z"
         id="path3" /><path
         style="font-size:73.9693px;line-height:0;font-family:'DM Sans';-inkscape-font-specification:'DM Sans, @opsz=40,wght=500';font-variation-settings:'opsz' 40, 'wght' 500;letter-spacing:2.64583px;fill:#495f74;stroke-width:0.482408"
         d="m 222.34611,169.61975 q -5.17785,0 -9.3941,-2.36702 -4.14228,-2.44099 -6.58327,-6.73121 -2.44098,-4.36418 -2.44098,-10.13379 0,-5.7696 2.44098,-10.05982 2.51496,-4.36419 6.65724,-6.73121 4.21625,-2.44099 9.46807,-2.44099 5.25182,0 9.3941,2.44099 4.21625,2.36702 6.58327,6.73121 2.44099,4.29022 2.44099,10.05982 0,5.76961 -2.44099,10.13379 -2.44099,4.29022 -6.65724,6.73121 -4.21625,2.36702 -9.46807,2.36702 z m 0,-5.91755 q 2.95878,0 5.39976,-1.47938 2.51496,-1.47939 4.06831,-4.36419 1.55336,-2.95877 1.55336,-7.4709 0,-4.51213 -1.55336,-7.4709 -1.47938,-2.95877 -3.99434,-4.36419 -2.44099,-1.47938 -5.32579,-1.47938 -2.8848,0 -5.39976,1.47938 -2.51495,1.40542 -4.06831,4.36419 -1.55335,2.95877 -1.55335,7.4709 0,4.51213 1.55335,7.4709 1.55336,2.8848 3.99434,4.36419 2.51496,1.47938 5.32579,1.47938 z"
         id="path2" /><path
         style="font-size:73.9693px;line-height:0;font-family:'DM Sans';-inkscape-font-specification:'DM Sans, @opsz=40,wght=500';font-variation-settings:'opsz' 40, 'wght' 500;letter-spacing:2.64583px;fill:#495f74;stroke-width:0.482408"
         d="m 174.80089,169.61975 q -7.69281,0 -13.31448,-3.32862 -5.54769,-3.40259 -8.58044,-9.3941 -2.95877,-6.06548 -2.95877,-14.05417 0,-7.91471 3.03274,-13.9802 3.03274,-6.06548 8.58044,-9.3941 5.5477,-3.40258 13.24051,-3.40258 9.09822,0 14.79386,4.36418 5.69563,4.36419 7.24899,12.27891 h -8.21059 q -1.10954,-4.5861 -4.5861,-7.24899 -3.40259,-2.73687 -9.24616,-2.73687 -5.32579,0 -9.24617,2.44099 -3.8464,2.44099 -5.99151,6.95311 -2.07114,4.51213 -2.07114,10.72555 0,6.28739 2.07114,10.79952 2.14511,4.51213 5.99151,6.95311 3.92038,2.36702 9.24617,2.36702 5.84357,0 9.3941,-2.58892 3.55052,-2.6629 4.66006,-7.10106 h 7.98869 q -1.55336,7.69281 -7.24899,12.057 -5.69564,4.29022 -14.79386,4.29022 z"
         id="text1" /></g><text
       xml:space="preserve"
       transform="matrix(0.26458333,0,0,0.26458333,75.406256,112.37583)"
       id="text2"
       style="font-style:normal;font-variant:normal;font-weight:300;font-stretch:condensed;font-size:279.569px;font-family:'IBM Plex Sans Condensed';-inkscape-font-specification:'IBM Plex Sans Condensed, Light Condensed';font-variant-ligatures:normal;font-variant-caps:normal;font-variant-numeric:normal;font-variant-east-asian:normal;text-align:start;letter-spacing:0px;writing-mode:lr-tb;direction:ltr;white-space:pre;shape-inside:url(#rect2);display:inline;fill:#495f74" /></g></svg>
