<?xml version="1.0" encoding="UTF-8" standalone="no"?>
<!-- Created with Inkscape (http://www.inkscape.org/) -->

<svg
   width="62.357365mm"
   height="68.7323mm"
   viewBox="0 0 62.357365 68.7323"
   version="1.1"
   id="svg1"
   inkscape:version="1.4.2 (ebf0e940, 2025-05-08)"
   sodipodi:docname="replacement logo.svg"
   xmlns:inkscape="http://www.inkscape.org/namespaces/inkscape"
   xmlns:sodipodi="http://sodipodi.sourceforge.net/DTD/sodipodi-0.dtd"
   xmlns="http://www.w3.org/2000/svg"
   xmlns:svg="http://www.w3.org/2000/svg">
  <sodipodi:namedview
     id="namedview1"
     pagecolor="#ffffff"
     bordercolor="#000000"
     borderopacity="0.25"
     inkscape:showpageshadow="2"
     inkscape:pageopacity="0.0"
     inkscape:pagecheckerboard="0"
     inkscape:deskcolor="#d1d1d1"
     inkscape:document-units="mm"
     inkscape:zoom="2.037259"
     inkscape:cx="315.12931"
     inkscape:cy="113.14222"
     inkscape:window-width="2056"
     inkscape:window-height="1170"
     inkscape:window-x="0"
     inkscape:window-y="40"
     inkscape:window-maximized="1"
     inkscape:current-layer="layer1" />
  <defs
     id="defs1" />
  <g
     inkscape:label="Layer 1"
     inkscape:groupmode="layer"
     id="layer1"
     transform="translate(-75.406256,-114.03542)">
    <g
       id="g46"
       transform="matrix(0.75073061,0,0,0.75073061,39.09031,114.03542)">
      <g
         id="g10"
         style="display:inline;fill:#5f9cd2;fill-opacity:1"
         transform="matrix(0.86665025,0,0,0.86665025,-33.602578,-42.936877)">
        <g
           id="g49"
           style="fill:#5f9cd2;fill-opacity:1">
          <path
             id="path10"
             style="display:inline;fill:#5f9cd2;fill-opacity:1;stroke-width:0.264583"
             d="m 190.43317,62.964116 -13.93093,6.066813 3.83594,2.834969 -17.59376,21.925277 -6.951,-3.985287 -14.92105,18.906852 -18.81384,-13.438452 -27.408145,26.330172 c -0.648753,5.7461 4.170805,3.42874 4.170805,3.42874 l 23.97838,-22.43739 19.18488,13.71647 15.29209,-19.184875 6.30194,4.078305 21.41471,-25.899195 3.72846,2.755387 z m -18.21026,31.480249 -8.39122,10.625705 -6.42235,-4.0628 -15.46623,19.13578 -19.26705,-13.76195 -10.48204,10.48205 v 1.67773 c 0,0 0.007,22.29803 0,22.4113 -0.007,0.11327 0.59017,5.46929 3.7507,5.46929 0,0 50.16267,0.0317 52.52786,0 2.36519,-0.0317 3.75523,-3.72432 3.75033,-5.46892 -0.005,-1.74459 0,-46.508185 0,-46.508185 z"
             sodipodi:nodetypes="ccccccccccccccccscccccczzzzs" />
        </g>
      </g>
      <g
         id="g54"
         transform="matrix(0.86665024,0,0,0.86665024,48.374248,2.2186246e-4)"
         style="display:inline;fill:#495f74;fill-opacity:1">
        <path
           id="path36"
           style="display:inline;fill:#495f74;fill-opacity:1;stroke-width:0.264583"
           d="m 83.097058,40.761937 c -2.25096,0 -4.063318,1.811839 -4.063318,4.062801 v 56.919002 l 6.296257,-6.097297 V 50.410444 c 0,-2.0052 1.529745,-3.619417 3.429765,-3.619417 h 60.737898 c 1.90003,0 3.42976,1.614217 3.42976,3.619417 v 6.480741 l 6.18877,-2.078426 v -9.988021 c 0,-2.250962 -1.81184,-4.062801 -4.0628,-4.062801 z m 5.705078,8.238257 c -0.995156,9e-5 -1.801867,0.806801 -1.801957,1.801957 v 7.929232 c -1.96e-4,0.995358 0.806599,1.802384 1.801957,1.802474 h 60.357044 c 0.99556,1.94e-4 1.80267,-0.806916 1.80247,-1.802474 V 50.802151 C 150.96156,49.806794 150.15454,49 149.15918,49.000194 Z m 2.726966,5.999634 c 0.844681,5.5e-5 1.529336,0.684941 1.529105,1.529622 -5.4e-5,0.844479 -0.684626,1.529051 -1.529105,1.529106 -0.844479,-5.4e-5 -1.529052,-0.684627 -1.529106,-1.529106 -2.31e-4,-0.844681 0.684425,-1.529568 1.529106,-1.529622 z m -2.726966,8.000028 c -0.995157,9e-5 -1.801868,0.806801 -1.801957,1.801958 v 7.929748 c 9e-5,0.995156 0.806801,1.801867 1.801957,1.801957 h 55.121704 l 7.03781,-8.605159 v -1.126546 c -9e-5,-0.995357 -0.80711,-1.802152 -1.80247,-1.801958 z m 2.726966,6.000151 c 0.844479,5.5e-5 1.529051,0.684627 1.529105,1.529106 -5.5e-5,0.844479 -0.684626,1.52905 -1.529105,1.529105 -0.844479,-5.4e-5 -1.529051,-0.684626 -1.529106,-1.529105 5.4e-5,-0.844479 0.684627,-1.529052 1.529106,-1.529106 z m 67.587088,5.023983 -6.18877,7.327718 v 55.927332 c 0,2.00519 -1.52973,3.6189 -3.42976,3.6189 H 88.759762 c -1.90002,0 -3.429765,-1.61371 -3.429765,-3.6189 v -25.15557 l -6.296257,6.29678 v 23.91998 c 0,2.25096 1.812358,4.0628 4.063318,4.0628 h 71.956332 c 2.25096,0 4.0628,-1.81184 4.0628,-4.0628 z m -70.312503,2.976045 c -0.996275,2.95e-4 -1.803704,0.807261 -1.803508,1.802474 v 7.929232 c 9e-5,0.995011 0.807435,1.801662 1.803508,1.801957 h 4.018876 l 6.08645,-5.887496 7.816057,5.887496 h 16.33441 l 8.84804,-11.392069 6.75721,3.93206 3.33519,-4.073654 z m 2.725415,5.000212 c 0.844479,5.5e-5 1.529051,0.684627 1.529105,1.529106 -5.5e-5,0.844479 -0.684626,1.52905 -1.529105,1.529105 -0.844479,-5.4e-5 -1.529051,-0.684626 -1.529106,-1.529105 5.4e-5,-0.844479 0.684627,-1.529052 1.529106,-1.529106 z"
           transform="translate(-71.522479,-40.762193)"
           sodipodi:nodetypes="ssccssssccsssccccccccccccccccccccccccccccccssssccsssscccccccccccccccccc" />
      </g>
    </g>
  </g>
</svg>
